<?xml version="1.0" encoding="utf-8"?>
<!-- Generator: Adobe Illustrator 27.5.0, SVG Export Plug-In . SVG Version: 6.00 Build 0)  -->
<svg version="1.1" xmlns="http://www.w3.org/2000/svg" xmlns:xlink="http://www.w3.org/1999/xlink" x="0px" y="0px"
	 viewBox="0 0 1200 1200" style="enable-background:new 0 0 1200 1200;" xml:space="preserve">
<g id="Layer_1">
	<rect style="fill:#C9AC68;" width="1200" height="1200"/>
	<ellipse style="fill:#737144;" cx="581.101" cy="1015.444" rx="493.549" ry="83.217"/>
</g>
<g id="Layer_2">
	<path style="fill:none;" d="M444.383,338.56c-2.105,0.102-4.03,0.366-5.829,0.746C440.353,339.182,442.288,338.945,444.383,338.56z
		"/>
	<path style="fill:#F9A868;" d="M594.719,503.383c0,0,47.898,6.998,54.472,9.808c6.575,2.809,37.245,33.753,47.902,39.438
		c0,0-3.078,6.683-16.676-3.503c-13.597-10.184-43.245-28.41-54.108-25.129c0,0-3.104,2.672,3.592,9.211
		c3.681,3.594,15.445,9.15,22.377,16.368c4.704,4.899-1.717,8.509-10.171,3.163c-8.452-5.348-38.229-19.712-50.391-33.671
		C579.555,505.108,594.719,503.383,594.719,503.383z"/>
	<path style="fill:#C6CDC7;" d="M790.992,564.596c0-0.515,0.058-1.016,0.161-1.5h-183.56v5.434l-14,7.307v5.583h203.811l5-5.583
		v-5.551c-1.193,0.899-2.674,1.439-4.283,1.439C794.184,571.725,790.992,568.534,790.992,564.596z"/>
	<path style="fill:#C6CDC7;" d="M880.903,376.207l-5.443-2.168l-6.393-2.546l-74.458,186.904c1.037-0.589,2.233-0.93,3.512-0.93
		c3.938,0,7.13,3.192,7.13,7.13c0,2.107-0.919,3.994-2.372,5.299l0.745,0.297l5.188,2.066l75.429-189.339L880.903,376.207z"/>
	<path style="fill:#414042;" d="M798.121,560.49c-0.736,0-1.425,0.196-2.022,0.536c-1.002,0.569-1.741,1.546-1.99,2.706
		c-0.06,0.279-0.093,0.567-0.093,0.864c0,2.267,1.838,4.105,4.105,4.105c0.927,0,1.779-0.311,2.467-0.829
		c0.095-0.071,0.186-0.146,0.274-0.225c0.837-0.751,1.366-1.838,1.366-3.052C802.227,562.328,800.389,560.49,798.121,560.49z"/>
	<g>
		<path d="M631.196,545.758c-24.239,2.729-50.095,16.503-50.095,31.17c0,2.608,0.544,3.137,1.556,5.547h91.889
			c0.973-2.317,1.5-4.746,1.54-7.247h-44.89V545.758z"/>
		<path d="M641.852,545.596c-2.505,0-5.071,0.162-7.656,0.453v26.845h40.891c0.002-0.092,0.015-0.182,0.015-0.273
			C675.101,557.695,665.749,545.596,641.852,545.596z"/>
	</g>
	<rect x="316.794" y="803.161" style="fill:#D1D3D4;" width="35.893" height="136.719"/>
	<path style="fill:#FFFFFF;" d="M600.112,495.297c0,0-114.14,13.103-141.455,5.198c-31.659-9.162-67.547-38.922-92.684-75.417
		c0,0-21.017-38.835-45.601-11.467c-10.844,12.072,0.786,44.584,4.883,48.241c18.37,16.396,60.46,63.822,118.349,78.193
		c22.357,5.55,88.432,2.241,157.84-4L600.112,495.297z"/>
	<path style="fill:#FFD395;" d="M410.829,293.992c-10.887-6.282-20.297-14.903-27.411-25.785
		c-9.409-14.393-13.586-30.877-13.103-47.65c-0.58-0.396-1.165-0.786-1.753-1.167c-17.521-11.365-38.623-16.029-59.668-11.406
		c-44.413,9.756-71.743,57.151-61.043,105.862c10.699,48.71,55.376,80.289,99.79,70.534c33.753-7.414,57.634-36.571,62.459-71.521
		c3.658-4.594,9.893-10.435,7.219-14.455C414.261,295.139,413.749,295.676,410.829,293.992z"/>
	<path style="fill:#ED1C24;" d="M347.918,322.96c0.311,8.146,3.327,32.708,28.155,38.597c0,0,7.741-3.764,12.875-12.528
		C367.544,351.437,352.407,330.186,347.918,322.96z"/>
	<path style="fill:#FFFFFF;" d="M347.9,320.307c0,0-0.046,0.994,0.017,2.653c4.489,7.226,19.626,28.477,41.03,26.069
		c2.11-3.603,3.782-8.045,4.29-13.425C393.238,335.604,369.678,344.874,347.9,320.307z"/>
	<path d="M367.71,285.93c0.911,4.149,0.229,7.826-1.524,8.211c-1.753,0.385-3.914-2.667-4.825-6.816
		c-0.911-4.15-0.229-7.826,1.524-8.211C364.638,278.727,366.798,281.78,367.71,285.93z"/>
	<path d="M355.604,261.114c8.593-1.888,17.095,3.088,19.788,11.267c-0.066-0.575-0.161-1.152-0.288-1.729
		c-2.014-9.17-11.081-14.972-20.251-12.957c-9.17,2.014-14.971,11.081-12.957,20.251c0.127,0.577,0.282,1.141,0.463,1.69
		C341.377,271.081,347.011,263.001,355.604,261.114z"/>
	<path d="M322.614,242.48c0,0,60.79,18.837,74.269-22.347c13.479-41.184-30.919-41.329-33.246-36.381c0,0,8.725,0.881,7.909,6.487
		c-0.816,5.606-5.311,10.006-38.362-2.187c-33.052-12.193-98.221,9.629-109.356,53.712c-11.135,44.083,21.816,112.026,63.71,130.93
		c0,0-18.434-32.007-4.002-41.661c0,0,4.188-5.015-2.217-10.092c-6.405-5.078-24.014-33.972-2.47-32.22
		c21.544,1.751,17.671,18.301,24.597,24.971l11.511,1.909c0,0-9.887-30.25-0.001-36.517
		C324.841,272.815,335.316,272.343,322.614,242.48z"/>
	<polygon style="fill:#FFD395;" points="346.614,426.969 308.027,425.892 315.926,371.685 345.277,370.985 	"/>
	<path style="fill:#FFFFFF;" d="M377.68,526.059c-7.665,32.622,6.71,75.246,6.04,109.991c-0.185,9.556-14.41,22.96-14.41,22.96
		c-30.507-20.642-88.012,8.1-88.012,8.1c3.99-11.035-14.828-27.921-11.826-38.718c20.156-72.509,19.473-137.056,17.508-159.314
		c-3.834-43.434-6.942-47.766,14.849-63.844c9.905-7.309,24.816-4.111,35.109-2.393C369.877,408.336,392.186,464.32,377.68,526.059z
		"/>
	<path style="fill:#FFFFFF;" d="M354.317,411.1l-6.841-16.064l-37.049-4.081l-2.185,11.35c6.853-0.16,15.01,0.54,23.639,2.201
		C340.358,406.14,348.07,408.464,354.317,411.1z"/>
	<path style="fill:#ED1C24;" d="M372.303,421.326c1.62,7.373-5.393,7.847-12.226,9.348c-6.833,1.501-8.541-6.009-10.161-13.382
		c-1.619-7.372-2.536-11.814,4.297-13.315C361.046,402.476,370.684,413.954,372.303,421.326z"/>
	<path style="fill:#ED1C24;" d="M357.969,427.724c0,0,19.377,187.36,28.473,201.743l20.001,12.671c0,0,6.913-27.456,5.854-29.954
		c-1.058-2.497-36.883-198.872-52.203-195.507C344.774,420.043,357.969,427.724,357.969,427.724z"/>
	<path style="fill:#58595B;" d="M495.372,981.936c0,0-0.426-33.637-2.064-40.231c-1.639-6.596,31.061-15.367,31.061-15.367
		s8.184,31.921,33.607,40.289C583.399,974.997,513.229,993.116,495.372,981.936z"/>
	<path d="M481.852,976.969c0,0-3.308,31.538,0,35.479c0,0,43.01,0.985,45.215,0c2.207-0.986,3.219-23.76,18.152,0.438
		c0,0,89.926,7.442,92.131-11.281c2.207-18.725,2.205-13.303-25.363-15.767c-27.572-2.464-62.951-20.695-66.768-32.029
		c0,0-49.031,13.303-56.752,4.926C488.467,958.735,482.798,965.689,481.852,976.969z"/>
	<path d="M376.798,656.768c-0.541,5.543,154.726,28.292,165.662,59.032c7.475,21.014,4.748,216.229,8.455,233.391
		c0,0-23.574,8.056-61.045-2.944c0,0-8.488-170.962-9.488-186.962c-0.617-9.894-180.247-3.475-202.089-61
		c-14.938-39.341,0-54.614,0-54.614s65-5.528,98.222,9.869C376.515,653.539,377.398,650.622,376.798,656.768z"/>
	<path style="fill:#58595B;" d="M604.829,907.487c0,0-6.246-33.055-9.003-39.265c-2.757-6.211,27.928-20.517,27.928-20.517
		s13.591,30.022,40.079,33.858C690.323,885.402,624.354,915.404,604.829,907.487z"/>
	<path d="M590.653,904.937c0,0,2.206,31.636,6.147,34.943c0,0,42.529-6.481,44.531-7.833c2.003-1.353-0.946-23.959,17.954-2.714
		c0,0,89.854-8.249,88.783-27.072c-1.07-18.824-0.133-13.483-27.712-11.136c-27.581,2.352-65.585-9.475-71.308-19.978
		c0,0-45.984,21.598-55.04,14.685C594.009,885.832,589.629,893.665,590.653,904.937z"/>
	<path d="M370.364,652.593c1.652,5.318,153.581-33.964,175.588-9.876c15.044,16.466,88.282,197.443,98.357,211.822
		c0,0-18.601,16.571-57.404,20.974c0,0-74.163-154.271-81.294-168.629c-4.407-8.88-167.471,66.74-209.923,22.197
		c-29.033-30.462-21.192-50.335-21.192-50.335s57.761-30.316,94.355-29.018C368.85,649.728,368.531,646.695,370.364,652.593z"/>
	<path style="fill:#F9A868;" d="M554.258,560.278c0,0,42.443-23.273,49.384-24.993c6.938-1.72,50.061,4.498,61.991,2.614
		c0,0,1.57,7.188-15.419,7.251c-16.987,0.065-51.632,3.381-58.325,12.546c0,0-0.868,4.004,8.417,5.187
		c5.103,0.651,17.841-2.004,27.722-0.419c6.706,1.076,3.756,7.826-6.213,8.653c-9.967,0.824-42.388,7.302-60.503,3.487
		C543.195,570.792,554.258,560.278,554.258,560.278z"/>
	<path style="fill:#FFFFFF;" d="M562.668,545.331c0,0-83.142-6.169-147.374-24.836c-4.024-1.169-54.828-43.912-75.987-90.62
		c0,0-13.817-41.939-42.854-19.352c-12.809,9.964-7.111,44.021-3.726,48.345c16.294,20.809,59.959,64.96,106.697,101.228
		c6.743,5.232,55.25,10.841,164.039,27.377L562.668,545.331z"/>
	<path style="fill:#FFFFFF;" d="M219.398,783.807l6.938-1.403c-2.582-0.643-5.166-1.507-7.742-2.572L219.398,783.807z"/>
	<path style="fill:#FFFFFF;" d="M268.328,769.703c-1.827,1.986-3.769,3.788-5.822,5.388l6.64-1.343L268.328,769.703z"/>
	<path style="fill:#FFFFFF;" d="M248.606,782.242c5.073-1.461,9.715-3.891,13.9-7.151l-36.169,7.313
		C233.88,784.283,241.396,784.318,248.606,782.242z"/>
	<path style="fill:#414042;" d="M281.238,655.251c-10.52-36.531-30.443-65.792-52.388-80.787c0,0,12.943-64.803-21.936-108.483
		c-11.563-14.48-21.519-26.968-36.08-26.968c-7.066,0-13.759,2.487-19.756,6.914l24.988,123.581l2.913,14.405l39.615,195.918
		c2.577,1.065,5.161,1.93,7.742,2.572l36.169-7.313c2.053-1.6,3.995-3.401,5.822-5.388
		C288.692,747.568,294.808,702.374,281.238,655.251z"/>
	<ellipse style="fill:#414042;" cx="345.376" cy="779.831" rx="125.978" ry="38.146"/>
	<path style="fill:#D1D3D4;" d="M473.422,686.023h-10.162c-3.674,0-6.651,1.576-6.651,3.52l-55,77.492H285.969l55-79.01
		c0-1.943-2.977-3.518-6.651-3.518h-10.162c-3.674,0-6.651,1.574-6.651,3.518l-55,82.527v3.861v1.516c0,1.945,2.977,3.52,6.651,3.52
		h139.104h10.162l0,0c3.674,0,6.651-1.574,6.651-3.518v-0.002v-5.377l55-81.01C480.073,687.599,477.096,686.023,473.422,686.023z"/>
	<path style="fill:#414042;" d="M496.53,690.219c0,4.129-3.347,7.477-7.477,7.477H305.526c-4.13,0-7.477-3.348-7.477-7.477v-11.424
		c0-4.129,3.347-7.477,7.477-7.477h183.527c4.13,0,7.477,3.348,7.477,7.477V690.219z"/>
	<rect x="235.52" y="928.434" style="fill:#D1D3D4;" width="198.44" height="22.892"/>
	<g>
		<path style="fill:#CCCCCC;" d="M258.412,964.804v-36.37H235.52v36.37c3.486-1.598,7.36-2.496,11.446-2.496
			C251.052,962.308,254.926,963.206,258.412,964.804z"/>
		<path d="M258.412,964.804c-3.486-1.598-7.36-2.496-11.446-2.496c-4.086,0-7.961,0.898-11.446,2.496
			c-9.472,4.344-16.054,13.902-16.054,25.004h5.513c0.175-7.74,4.357-14.475,10.541-18.258c3.337-2.042,7.247-3.238,11.446-3.238
			c4.199,0,8.109,1.196,11.446,3.238c6.184,3.783,10.366,10.518,10.541,18.258h5.513
			C274.466,978.706,267.884,969.148,258.412,964.804z"/>
		<path d="M265.29,989.892c-0.224-9.932-8.339-17.915-18.324-17.915c-9.985,0-18.1,7.983-18.324,17.915
			c-0.003,0.14-0.011,0.279-0.011,0.42c0,10.126,8.209,18.335,18.335,18.335c10.126,0,18.335-8.209,18.335-18.335
			C265.301,990.171,265.294,990.032,265.29,989.892z"/>
	</g>
	<g>
		<path style="fill:#CCCCCC;" d="M434.162,964.804v-36.37H411.27v36.37c3.486-1.598,7.36-2.496,11.446-2.496
			C426.802,962.308,430.676,963.206,434.162,964.804z"/>
		<path d="M434.162,964.804c-3.486-1.598-7.36-2.496-11.446-2.496c-4.086,0-7.961,0.898-11.446,2.496
			c-9.472,4.344-16.054,13.902-16.054,25.004h5.513c0.175-7.74,4.357-14.475,10.541-18.258c3.337-2.042,7.247-3.238,11.446-3.238
			c4.199,0,8.109,1.196,11.446,3.238c6.184,3.783,10.366,10.518,10.541,18.258h5.513
			C450.216,978.706,443.634,969.148,434.162,964.804z"/>
		<path d="M441.04,989.892c-0.224-9.932-8.339-17.915-18.324-17.915c-9.985,0-18.1,7.983-18.324,17.915
			c-0.003,0.14-0.011,0.279-0.011,0.42c0,10.126,8.209,18.335,18.335,18.335c10.126,0,18.335-8.209,18.335-18.335
			C441.051,990.171,441.044,990.032,441.04,989.892z"/>
	</g>
	<rect x="790.483" y="634.014" style="fill:#D1D3D4;" width="44.998" height="349.483"/>
	<polygon style="fill:#CCCCCC;" points="812.982,966.777 653.587,1006.777 653.587,1018.784 972.377,1018.784 972.377,1006.777 	"/>
	<rect x="644.753" y="1015.444" style="fill:#6D6E71;" width="336.459" height="9"/>
	<rect x="563.464" y="582.474" style="fill:#7D4921;" width="486.746" height="54.943"/>
</g>
</svg>
